#N canvas 345 230 450 258 10;
#X obj 369 187 hsl 64 32 0 127 0 0 empty cutoff cutoff -2 -8 0 10 -262144
-1 -1 0 1;
#X floatatom 403 97 5 0 0 0 clock tick -, f 5;
#N canvas 222 376 450 300 clock 0;
#X obj 12 13 loadbang;
#X msg 12 36 bang;
#X obj 12 89 f;
#X obj 42 89 + 1;
#X obj 12 142 t f f;
#X obj 39 165 list prepend tick;
#X obj 12 218 s tick;
#X obj 39 188 s \$0/to-websocket;
#X obj 12 59 metro 133.333;
#X obj 12 112 mod 16;
#X connect 0 0 1 0;
#X connect 1 0 8 0;
#X connect 2 0 3 0;
#X connect 2 0 9 0;
#X connect 3 0 2 1;
#X connect 4 0 6 0;
#X connect 4 1 5 0;
#X connect 5 0 7 0;
#X connect 8 0 2 0;
#X connect 9 0 4 0;
#X restore 386 10 pd clock;
#X obj 136 34 r \$0/to-websocket;
#X obj 277 82 tgl 15 0 empty empty connected 17 7 0 10 -262144 -1 -1
0 1;
#X obj 9 30 r tick;
#X obj 136 110 s;
#N canvas 2 50 450 300 messages-to-local 0;
#X obj 14 15 inlet;
#X obj 14 256 outlet;
#X obj 269 258 outlet;
#X obj 14 120 list;
#X obj 14 91 t b a;
#X obj 14 233 list trim;
#X obj 269 212 list trim;
#X obj 14 68 list split 1;
#X obj 269 235 symbol;
#X connect 0 0 7 0;
#X connect 3 0 5 0;
#X connect 4 0 3 0;
#X connect 4 1 6 0;
#X connect 5 0 1 0;
#X connect 6 0 8 0;
#X connect 7 0 4 0;
#X connect 7 1 3 1;
#X connect 8 0 2 0;
#X restore 136 80 pd messages-to-local;
#X text 135 9 browser connection;
#N canvas 2 50 450 250 (subpatch) 0;
#X array lookup 16 float 3;
#A 0 1 0 1 1 0 0 0 1 1 1 0 0 0 0 0 0;
#X coords 0 1.1 16 -0.1 80 32 1 0 0;
#X restore 357 134 graph;
#X obj 9 53 tabread lookup;
#X obj 9 76 sel 1;
#X msg 9 99 1 \, 0 100;
#X text 6 7 sound;
#X obj 9 122 line~;
#X obj 9 145 *~;
#X obj 9 168 vcf~ 4;
#X obj 38 145 r cutoff;
#X obj 29 201 dac~;
#X obj 48 122 phasor~ 220;
#X obj 136 57 ../websocket-server 9001;
#X connect 3 0 20 0;
#X connect 5 0 10 0;
#X connect 7 0 6 0;
#X connect 7 1 6 1;
#X connect 10 0 11 0;
#X connect 11 0 12 0;
#X connect 12 0 14 0;
#X connect 14 0 15 0;
#X connect 15 0 16 0;
#X connect 16 1 18 0;
#X connect 16 1 18 1;
#X connect 17 0 16 1;
#X connect 19 0 15 1;
#X connect 20 0 7 0;
#X connect 20 1 4 0;
